<svg xmlns="http://www.w3.org/2000/svg" width="1440" height="760" viewBox="0 0 1440 760" role="img" aria-labelledby="title desc">
  <title id="title">ROS 2 control loop over virtual CAN</title>
  <desc id="desc">Commands travel from cmd_vel through diff_drive_controller and CanMotorHardware to two virtual motors. ACK and encoder feedback return over vcan0 to joint states and odometry.</desc>
  <defs>
    <style>
      .sans { font-family: Inter, ui-sans-serif, system-ui, -apple-system, "Segoe UI", sans-serif; }
      .ink { fill: #222b2e; }
      .muted { fill: #697477; }
      .teal { fill: #197c7a; }
      .coral { fill: #d65f4a; }
      .box { fill: #faf9f5; stroke: #aeb7b4; stroke-width: 2; }
    </style>
    <marker id="arrow-teal" markerWidth="10" markerHeight="10" refX="9" refY="5" orient="auto" markerUnits="strokeWidth">
      <path d="M0 0L10 5L0 10Z" fill="#197c7a"/>
    </marker>
    <marker id="arrow-ink" markerWidth="10" markerHeight="10" refX="9" refY="5" orient="auto" markerUnits="strokeWidth">
      <path d="M0 0L10 5L0 10Z" fill="#435053"/>
    </marker>
    <pattern id="grid" width="28" height="28" patternUnits="userSpaceOnUse">
      <path d="M28 0H0V28" fill="none" stroke="#d9ddd8" stroke-width="1" opacity="0.48"/>
    </pattern>
  </defs>

  <rect width="1440" height="760" fill="#f5f3ee"/>
  <rect x="1012" width="428" height="760" fill="url(#grid)"/>

  <text x="60" y="68" class="sans teal" font-size="16" font-weight="750" letter-spacing="2">CONTROL LOOP / SIGNAL MAP</text>
  <text x="60" y="120" class="sans ink" font-size="42" font-weight="760">One loop. Two motors. Six CAN identifiers.</text>
  <text x="60" y="155" class="sans muted" font-size="20">ros2_control talks directly to SocketCAN; no CAN-to-topic bridge sits in the middle.</text>
  <path d="M60 184H1380" fill="none" stroke="#c9ceca" stroke-width="2"/>

  <!-- Command lane -->
  <text x="60" y="223" class="sans coral" font-size="14" font-weight="750" letter-spacing="1.8">COMMAND LANE</text>
  <g class="sans">
    <rect x="60" y="246" width="232" height="126" rx="4" class="box"/>
    <text x="82" y="278" class="muted" font-size="13" font-weight="700" letter-spacing="1.2">ROS INPUT</text>
    <text x="82" y="322" class="ink" font-size="25" font-weight="730">/cmd_vel</text>
    <text x="82" y="349" class="muted" font-size="16">TwistStamped</text>

    <rect x="340" y="246" width="260" height="126" rx="4" class="box"/>
    <text x="362" y="278" class="muted" font-size="13" font-weight="700" letter-spacing="1.2">ROS 2 CONTROLLER</text>
    <text x="362" y="317" class="ink" font-size="22" font-weight="730">diff_drive_controller</text>
    <text x="362" y="347" class="muted" font-size="16">wheel velocity commands</text>

    <rect x="648" y="246" width="306" height="126" rx="4" class="box"/>
    <text x="670" y="278" class="muted" font-size="13" font-weight="700" letter-spacing="1.2">SYSTEMINTERFACE</text>
    <text x="670" y="317" class="ink" font-size="21" font-weight="730">CanMotorHardware::write()</text>
    <text x="670" y="347" class="muted" font-size="16">encode + sequence + ACK track</text>

    <rect x="1026" y="229" width="96" height="330" rx="4" fill="#222b2e"/>
    <text x="1074" y="271" fill="#8fbfbd" font-size="14" font-weight="750" letter-spacing="1.5" text-anchor="middle">BUS</text>
    <text x="1074" y="397" fill="#f5f3ee" font-size="27" font-weight="760" text-anchor="middle" transform="rotate(-90 1074 397)">SOCKETCAN / VCAN0</text>
    <circle cx="1074" cy="513" r="8" fill="#d65f4a"/>

    <rect x="1170" y="246" width="210" height="126" rx="4" class="box"/>
    <text x="1192" y="278" class="muted" font-size="13" font-weight="700" letter-spacing="1.2">SIMULATED PLANT</text>
    <text x="1192" y="317" class="ink" font-size="20" font-weight="730">virtual_motor_node</text>
    <text x="1192" y="347" class="muted" font-size="16">node 1 + node 2</text>
  </g>

  <path d="M292 309H340M600 309H648M954 309H1026M1122 309H1170" fill="none" stroke="#197c7a" stroke-width="4" marker-end="url(#arrow-teal)"/>
  <rect x="922" y="278" width="126" height="25" fill="#f5f3ee"/>
  <text x="985" y="297" class="sans teal" font-size="14" font-weight="750" text-anchor="middle">0x101 · 0x102</text>

  <!-- Feedback lane -->
  <text x="60" y="449" class="sans teal" font-size="14" font-weight="750" letter-spacing="1.8">STATE + CONFIRMATION LANE</text>
  <g class="sans">
    <rect x="1170" y="472" width="210" height="126" rx="4" class="box"/>
    <text x="1192" y="504" class="muted" font-size="13" font-weight="700" letter-spacing="1.2">MOTOR OUTPUT</text>
    <text x="1192" y="543" class="ink" font-size="20" font-weight="730">ACK + encoder</text>
    <text x="1192" y="573" class="muted" font-size="16">50 Hz feedback</text>

    <rect x="648" y="472" width="306" height="126" rx="4" class="box"/>
    <text x="670" y="504" class="muted" font-size="13" font-weight="700" letter-spacing="1.2">SYSTEMINTERFACE</text>
    <text x="670" y="543" class="ink" font-size="21" font-weight="730">CanMotorHardware::read()</text>
    <text x="670" y="573" class="muted" font-size="16">decode + health + joint state</text>

    <rect x="60" y="472" width="540" height="126" rx="4" class="box"/>
    <path d="M330 490V580" stroke="#c9ceca" stroke-width="2"/>
    <text x="82" y="504" class="muted" font-size="13" font-weight="700" letter-spacing="1.2">JOINT_STATE_BROADCASTER</text>
    <text x="82" y="543" class="ink" font-size="22" font-weight="730">/joint_states</text>
    <text x="82" y="573" class="muted" font-size="16">position + velocity</text>
    <text x="352" y="504" class="muted" font-size="13" font-weight="700" letter-spacing="1.2">DIFF_DRIVE_CONTROLLER</text>
    <text x="352" y="543" class="ink" font-size="22" font-weight="730">/odom</text>
    <text x="352" y="573" class="muted" font-size="16">diff-drive odometry</text>
  </g>

  <path d="M1170 535H1122M1026 535H954M648 535H600" fill="none" stroke="#435053" stroke-width="4" stroke-dasharray="10 7" marker-end="url(#arrow-ink)"/>
  <rect x="922" y="503" width="126" height="48" fill="#f5f3ee"/>
  <text x="985" y="521" class="sans ink" font-size="13" font-weight="750" text-anchor="middle">0x181 · 0x182</text>
  <text x="985" y="541" class="sans ink" font-size="13" font-weight="750" text-anchor="middle">0x281 · 0x282</text>

  <!-- Bottom notes -->
  <path d="M60 642H1380" fill="none" stroke="#c9ceca" stroke-width="2"/>
  <g class="sans">
    <circle cx="72" cy="686" r="7" fill="#197c7a"/>
    <text x="92" y="692" class="ink" font-size="17" font-weight="700">Solid line</text>
    <text x="182" y="692" class="muted" font-size="17">velocity command</text>
    <path d="M371 686H422" stroke="#435053" stroke-width="4" stroke-dasharray="10 7"/>
    <text x="438" y="692" class="ink" font-size="17" font-weight="700">Dashed line</text>
    <text x="558" y="692" class="muted" font-size="17">ACK and feedback</text>
    <text x="1380" y="692" class="muted" font-size="15" font-weight="700" letter-spacing="1.3" text-anchor="end">DIRECT SOCKETCAN C++ API</text>
  </g>
</svg>
